<svg xmlns="http://www.w3.org/2000/svg" width="512" height="512" viewBox="0 0 512 512">
  <rect width="512" height="512" rx="100" fill="#4F46E5"/>
  <path d="M256 120c-75 0-136 61-136 136s61 136 136 136 136-61 136-136-61-136-136-136zm0 240c-57.3 0-104-46.7-104-104s46.7-104 104-104 104 46.7 104 104-46.7 104-104 104z" fill="white"/>
  <path d="M256 180c-42 0-76 34-76 76s34 76 76 76 76-34 76-76-34-76-76-76zm0 120c-24.3 0-44-19.7-44-44s19.7-44 44-44 44 19.7 44 44-19.7 44-44 44z" fill="white"/>
  <circle cx="256" cy="256" r="20" fill="white"/>
  <path d="M340 340l40 40" stroke="white" stroke-width="24" stroke-linecap="round"/>
</svg>
